<?xml version="1.0" encoding="UTF-8"?>
<svg xmlns="http://www.w3.org/2000/svg" xmlns:xlink="http://www.w3.org/1999/xlink" viewBox="0 0 40 40" width="40px" height="40px">
<g id="surface74718677">
<path style=" stroke:none;fill-rule:nonzero;fill:rgb(40.000001%,40.000001%,40.000001%);fill-opacity:1;" d="M 20 37.398438 C 10.390625 37.398438 2.601562 29.609375 2.601562 20 C 2.601562 10.390625 10.390625 2.601562 20 2.601562 C 29.609375 2.601562 37.398438 10.390625 37.398438 20 C 37.398438 29.609375 29.609375 37.398438 20 37.398438 Z M 20 37.398438 "/>
<path style=" stroke:none;fill-rule:nonzero;fill:rgb(80.000001%,80.000001%,80.000001%);fill-opacity:1;" d="M 18.226562 9.425781 C 13.722656 9.425781 10.066406 13.082031 10.066406 17.585938 C 10.066406 22.085938 13.722656 25.746094 18.226562 25.746094 C 20.007812 25.746094 21.652344 25.171875 22.996094 24.199219 L 29.308594 30.5 L 30.660156 29.148438 L 24.421875 22.894531 C 25.644531 21.464844 26.386719 19.613281 26.386719 17.585938 C 26.386719 13.082031 22.726562 9.425781 18.226562 9.425781 Z M 18.226562 10.386719 C 22.207031 10.386719 25.425781 13.601562 25.425781 17.585938 C 25.425781 21.566406 22.207031 24.785156 18.226562 24.785156 C 14.242188 24.785156 11.023438 21.566406 11.023438 17.585938 C 11.023438 13.601562 14.242188 10.386719 18.226562 10.386719 Z M 18.226562 10.386719 "/>
</g>
</svg>
