<?xml version="1.0" encoding="UTF-8"?>
<svg xmlns="http://www.w3.org/2000/svg" xmlns:xlink="http://www.w3.org/1999/xlink" viewBox="0 0 40 40" width="40px" height="40px">
<g id="surface72460454">
<path style=" stroke:none;fill-rule:nonzero;fill:rgb(40.000001%,40.000001%,40.000001%);fill-opacity:1;" d="M 20 35 C 11.714844 35 5 28.285156 5 20 C 5 11.714844 11.714844 5 20 5 C 28.285156 5 35 11.714844 35 20 C 35 28.285156 28.285156 35 20 35 Z M 20 35 "/>
<path style=" stroke:none;fill-rule:nonzero;fill:rgb(80.000001%,80.000001%,80.000001%);fill-opacity:1;" d="M 20 11.863281 C 15.445312 11.863281 11.71875 15.320312 11.71875 19.605469 C 11.71875 21.945312 12.847656 24.027344 14.601562 25.441406 L 14.601562 28.660156 L 15.128906 28.378906 L 17.726562 27.03125 C 18.453125 27.222656 19.207031 27.34375 20 27.34375 C 24.554688 27.34375 28.28125 23.890625 28.28125 19.605469 C 28.28125 15.320312 24.554688 11.863281 20 11.863281 Z M 20 12.585938 C 24.191406 12.585938 27.558594 15.738281 27.558594 19.605469 C 27.558594 23.472656 24.191406 26.625 20 26.625 C 19.222656 26.625 18.46875 26.511719 17.761719 26.308594 L 17.625 26.277344 L 17.503906 26.34375 L 15.320312 27.480469 L 15.320312 25.117188 L 15.183594 25.015625 C 13.507812 23.722656 12.441406 21.777344 12.441406 19.605469 C 12.441406 15.738281 15.808594 12.585938 20 12.585938 Z M 19.179688 17.523438 L 14.847656 22.113281 L 18.738281 19.929688 L 20.820312 22.15625 L 25.097656 17.523438 L 21.304688 19.648438 Z M 19.179688 17.523438 "/>
</g>
</svg>
